<?xml version="1.0" standalone="no"?>
<svg viewBox="0 0 200 200" xmlns="http://www.w3.org/2000/svg">
    <mask id="mask0" mask-type="alpha">
        <path fill="#E0FCB6" d="M70.9,-22.7C79.4,3,65.1,36.5,42.4,51.4C19.7,66.2,-11.5,62.5,-34.2,46.2C-56.9,29.9,-71.1,1.1,-64,-22.8C-56.9,-46.6,-28.5,-65.4,1.4,-65.9C31.2,-66.3,62.4,-48.4,70.9,-22.7Z" transform="translate(100 100)" />
    </mask>
    <g mask="url(#mask0)">
        <path fill="#E0FCB6" d="M70.9,-22.7C79.4,3,65.1,36.5,42.4,51.4C19.7,66.2,-11.5,62.5,-34.2,46.2C-56.9,29.9,-71.1,1.1,-64,-22.8C-56.9,-46.6,-28.5,-65.4,1.4,-65.9C31.2,-66.3,62.4,-48.4,70.9,-22.7Z" transform="translate(100 100)" />
        <image href=""/>
    </g>
</svg>
